# xmcd
#
# Track frame offsets:
#	150
#	18378
#	33545
#	50757
#	64518
#	76663
#	91783
#	108352
#	123128
#	140220
#	157500
#	174034
#	192216
#	205823
#	222117
#
# Disc length: 3146 seconds
#
# Revision: 1
# Processed by: cddbd v1.5.2PL0 Copyright (c) Steve Scherf et al.
# Submitted via: EasyCDDAExtractor 7.0.3.1
#
DISCID=b70c480f
DTITLE=Various Artist - Hitz Country - 2008 - 07
DYEAR=2008
DGENRE=Country
TTITLE0=Alan Jackson - Country Boy
TTITLE1=Dierks Bentley - Feel That Fire
TTITLE2=Trace Adkins - Muddy Water
TTITLE3=Kristy Lee Cook - 15 Minutes Of Shame
TTITLE4=Lost Trailers - How 'Bout You Don't
TTITLE5=Gary Allan - She's So California
TTITLE6=Jack Ingram - That's A Man
TTITLE7=Jimmy Wayne - I Will
TTITLE8=John Michael Montgomery - Forever
TTITLE9=Tracy Lawrence - You Can't Hide Redneck
TTITLE10=Randy Rogers Band - In My Arms Instead
TTITLE11=Jewel - Till It Feels Like Cheating
TTITLE12=Melissa Lawson - What If It All Goes Right
TTITLE13=James Otto - These Are The Good Ole Days
TTITLE14=Michael Car - Rednecks, White Socks and Blue Ribbon Beer
EXTD=
EXTT0=
EXTT1=
EXTT2=
EXTT3=
EXTT4=
EXTT5=
EXTT6=
EXTT7=
EXTT8=
EXTT9=
EXTT10=
EXTT11=
EXTT12=
EXTT13=
EXTT14=
PLAYORDER=
